<svg width="1200" height="630" viewBox="0 0 1200 630" fill="none" xmlns="http://www.w3.org/2000/svg">
<rect width="1200" height="630" fill="black"/>
<path d="M760.095 417.399C783.815 397.481 802.763 372.498 815.546 344.29C828.328 316.082 834.618 285.367 833.952 254.408C831.608 147.27 745.768 58.9301 638.78 53.3049C611.176 51.8029 583.55 55.8616 557.546 65.24C531.541 74.6184 507.686 89.1253 487.399 107.899C467.112 126.673 450.805 149.33 439.448 174.526C428.091 199.722 421.915 226.943 421.287 254.572L368.649 355.779C368.438 356.201 368.227 356.623 368.039 357.045C364.265 365.838 363.996 375.74 367.287 384.725C370.578 393.71 377.18 401.097 385.741 405.375L386.328 405.633L440.044 430.22V503.02C440.044 512.966 443.997 522.505 451.032 529.538C458.068 536.571 467.61 540.522 477.559 540.522H590.105C595.079 540.522 599.85 538.546 603.368 535.03C606.886 531.513 608.862 526.744 608.862 521.771C608.862 516.798 606.886 512.029 603.368 508.512C599.85 504.996 595.079 503.02 590.105 503.02H477.559V418.196C477.562 414.602 476.531 411.083 474.59 408.058C472.649 405.032 469.879 402.629 466.61 401.133L402.529 371.764L456.621 267.838C458.031 265.197 458.779 262.253 458.802 259.259C458.796 221.016 471.786 183.904 495.641 154.006C519.497 124.108 552.804 103.196 590.105 94.6973V131.238C577.589 135.661 567.041 144.365 560.325 155.811C553.608 167.256 551.155 180.707 553.4 193.786C555.645 206.864 562.442 218.729 572.591 227.282C582.74 235.835 595.588 240.526 608.862 240.526C622.136 240.526 634.984 235.835 645.133 227.282C655.282 218.729 662.079 206.864 664.324 193.786C666.569 180.707 664.116 167.256 657.4 155.811C650.683 144.365 640.135 135.661 627.62 131.238V90.5018C630.668 90.5018 633.716 90.5018 636.764 90.7362C670.027 92.6409 701.991 104.307 728.656 124.276C755.322 144.246 775.506 171.631 786.683 203.007H740.165C737.413 203.006 734.695 203.61 732.203 204.777C729.711 205.943 727.506 207.643 725.745 209.757L665.932 281.526C653.457 276.879 639.741 276.792 627.208 281.281C614.676 285.769 604.135 294.543 597.45 306.051C590.765 317.559 588.366 331.059 590.679 344.165C592.991 357.27 599.865 369.136 610.085 377.663C620.305 386.191 633.212 390.831 646.525 390.762C659.837 390.694 672.696 385.921 682.828 377.289C692.959 368.657 699.711 356.721 701.888 343.593C704.065 330.464 701.528 316.989 694.725 305.55L748.957 240.508H795.359C795.921 245.384 796.265 250.306 796.39 255.275C796.975 282.132 791.161 308.742 779.427 332.91C767.694 357.077 750.378 378.108 728.91 394.265C726.265 396.248 724.191 398.894 722.898 401.936C721.605 404.977 721.139 408.307 721.548 411.586L740.305 561.593C740.876 566.121 743.079 570.286 746.502 573.307C749.925 576.327 754.333 577.996 758.899 578C759.682 578 760.465 577.953 761.243 577.859C763.688 577.555 766.049 576.772 768.192 575.556C770.334 574.339 772.215 572.712 773.729 570.769C775.242 568.825 776.357 566.602 777.011 564.228C777.665 561.853 777.844 559.373 777.539 556.929L760.095 417.399ZM608.862 203.007C605.152 203.007 601.526 201.907 598.441 199.847C595.356 197.786 592.952 194.858 591.532 191.432C590.113 188.005 589.741 184.235 590.465 180.598C591.189 176.961 592.975 173.619 595.598 170.997C598.222 168.375 601.564 166.589 605.203 165.865C608.841 165.142 612.613 165.513 616.04 166.932C619.468 168.352 622.397 170.755 624.458 173.839C626.519 176.922 627.62 180.547 627.62 184.256C627.62 189.229 625.643 193.998 622.126 197.515C618.608 201.031 613.837 203.007 608.862 203.007ZM646.377 353.013C642.667 353.013 639.041 351.914 635.956 349.853C632.871 347.793 630.467 344.864 629.047 341.438C627.628 338.012 627.256 334.242 627.98 330.604C628.704 326.967 630.49 323.626 633.113 321.004C635.737 318.381 639.079 316.596 642.718 315.872C646.356 315.149 650.128 315.52 653.555 316.939C656.983 318.358 659.912 320.762 661.973 323.845C664.034 326.929 665.135 330.554 665.135 334.263C665.135 339.236 663.158 344.005 659.641 347.521C656.123 351.038 651.352 353.013 646.377 353.013Z" fill="white"/>
</svg>
